<svg xmlns="http://www.w3.org/2000/svg" xmlns:xlink="http://www.w3.org/1999/xlink" version="1.1" id="Layer_1" x="0px" y="0px" enable-background="new 0 0 240 240" xml:space="preserve" viewBox="41.16 40.52 160.3 160.24">
<path fill="#fff" opacity="1.000000" stroke="none" d=" M112.503052,40.994698   C132.480209,39.162880 150.903305,42.485664 167.113800,53.982605   C189.171646,69.626625 200.668869,90.935257 201.435883,118.280006   C202.452072,154.509109 175.261963,188.816010 138.560486,195.885010   C128.475571,197.827438 118.395042,197.789230 108.304459,196.127518   C87.431847,192.690216 66.881233,194.289047 46.561420,199.887512   C44.994965,200.319092 43.457325,201.132629 41.161297,200.570160   C41.491344,195.356186 43.616882,190.483200 44.638626,185.405670   C48.388176,166.772491 48.246555,148.126343 45.562943,129.362198   C42.068943,104.931740 49.122475,83.615334 65.654663,65.452400   C78.132713,51.743519 93.895088,44.077244 112.503052,40.994698  M122.544174,70.312515   C96.652519,70.578407 75.505569,92.019173 75.757004,117.749748   C76.014679,144.119385 96.984428,164.856934 123.337875,164.803757   C149.318588,164.751328 170.417892,143.850281 170.658798,117.927437   C170.900009,91.973656 149.717361,70.600838 122.544174,70.312515  z"/>
</svg>